<svg width="20" height="20" viewBox="0 0 20 20" fill="none" xmlns="http://www.w3.org/2000/svg">
<g clip-path="url(#clip0_36_1466)">
<path d="M12.4976 17.4966V10.8312C12.4976 10.6103 12.4098 10.3983 12.2535 10.2421C12.0973 10.0858 11.8854 9.99805 11.6644 9.99805H8.33171C8.11074 9.99805 7.89882 10.0858 7.74257 10.2421C7.58632 10.3983 7.49854 10.6103 7.49854 10.8312V17.4966" stroke="currentColor" stroke-width="1.66634" stroke-linecap="round" stroke-linejoin="round"/>
<path d="M2.49951 8.33171C2.49945 8.08931 2.55228 7.84982 2.6543 7.62994C2.75633 7.41006 2.9051 7.21509 3.09023 7.05862L8.92243 2.06043C9.22319 1.80624 9.60426 1.66677 9.99805 1.66677C10.3918 1.66677 10.7729 1.80624 11.0737 2.06043L16.9059 7.05862C17.091 7.21509 17.2398 7.41006 17.3418 7.62994C17.4438 7.84982 17.4966 8.08931 17.4966 8.33171V15.8302C17.4966 16.2722 17.321 16.696 17.0085 17.0085C16.696 17.321 16.2722 17.4966 15.8302 17.4966H4.16585C3.72391 17.4966 3.30007 17.321 2.98757 17.0085C2.67507 16.696 2.49951 16.2722 2.49951 15.8302V8.33171Z" stroke="currentColor" stroke-width="1.66634" stroke-linecap="round" stroke-linejoin="round"/>
</g>
<defs>
<clipPath id="clip0_36_1466">
<rect width="19.9961" height="19.9961" fill="none"/>
</clipPath>
</defs>
</svg>
