<svg width="20" height="20" viewBox="0 0 20 20" fill="none" xmlns="http://www.w3.org/2000/svg">
<path d="M2.49951 5.8322V4.16585C2.49951 3.72391 2.67507 3.30007 2.98757 2.98757C3.30007 2.67507 3.72391 2.49951 4.16585 2.49951H5.8322" stroke="currentColor" stroke-width="1.66634" stroke-linecap="round" stroke-linejoin="round"/>
<path d="M14.1639 2.49951H15.8303C16.2722 2.49951 16.6961 2.67507 17.0086 2.98757C17.3211 3.30007 17.4966 3.72391 17.4966 4.16585V5.8322" stroke="currentColor" stroke-width="1.66634" stroke-linecap="round" stroke-linejoin="round"/>
<path d="M17.4966 14.1639V15.8302C17.4966 16.2722 17.3211 16.696 17.0086 17.0085C16.6961 17.321 16.2722 17.4966 15.8303 17.4966H14.1639" stroke="currentColor" stroke-width="1.66634" stroke-linecap="round" stroke-linejoin="round"/>
<path d="M5.8322 17.4966H4.16585C3.72391 17.4966 3.30007 17.321 2.98757 17.0085C2.67507 16.696 2.49951 16.2722 2.49951 15.8302V14.1639" stroke="currentColor" stroke-width="1.66634" stroke-linecap="round" stroke-linejoin="round"/>
<path d="M5.83215 9.99805H14.1639" stroke="currentColor" stroke-width="1.66634" stroke-linecap="round" stroke-linejoin="round"/>
</svg>
